<?xml version="1.0" standalone="no"?>
<!DOCTYPE svg PUBLIC "-//W3C//DTD SVG 20010904//EN"
 "http://www.w3.org/TR/2001/REC-SVG-20010904/DTD/svg10.dtd">
<svg version="1.0" xmlns="http://www.w3.org/2000/svg"
 width="1016.000000pt" height="1016.000000pt" viewBox="0 0 1016.000000 1016.000000"
 preserveAspectRatio="xMidYMid meet">
<metadata>
Created by potrace 1.11, written by Peter Selinger 2001-2013
</metadata>
<g transform="translate(0.000000,1016.000000) scale(0.100000,-0.100000)"
fill="#000000" stroke="none">
<path d="M3810 8433 c-17 -12 -50 -17 -119 -20 -53 -1 -121 -5 -151 -7 -30 -3
-109 -9 -175 -14 -117 -9 -143 -16 -195 -53 -14 -10 -45 -20 -69 -23 -24 -3
-61 -17 -82 -31 -34 -22 -45 -24 -101 -19 -35 3 -76 10 -93 16 -75 25 -94 26
-119 7 -14 -11 -39 -44 -56 -73 -21 -38 -46 -64 -83 -88 -73 -46 -137 -107
-137 -130 0 -11 -11 -43 -25 -71 -20 -44 -23 -58 -15 -92 15 -62 13 -67 -46
-127 -46 -47 -64 -58 -107 -68 -68 -14 -113 -46 -139 -95 -11 -22 -36 -55 -54
-73 -42 -41 -54 -62 -57 -106 -2 -26 -14 -46 -47 -78 -43 -43 -70 -91 -70
-126 0 -11 -7 -25 -15 -32 -9 -7 -24 -31 -34 -53 -21 -46 -16 -78 20 -128 14
-21 23 -49 25 -87 8 -133 7 -158 -15 -200 -11 -22 -21 -53 -21 -67 0 -14 -14
-49 -30 -78 -35 -63 -36 -69 -10 -122 12 -25 19 -62 20 -98 0 -48 5 -65 32
-106 20 -28 49 -56 72 -67 22 -11 46 -33 56 -52 10 -18 38 -54 63 -81 31 -33
50 -65 61 -102 22 -76 53 -119 109 -150 51 -28 107 -76 107 -94 0 -6 44 -37
98 -70 119 -73 156 -77 267 -26 83 38 114 40 224 17 121 -26 138 -24 233 27
45 25 108 53 138 62 67 20 195 29 220 15 10 -5 31 -33 48 -62 42 -74 77 -108
110 -108 15 0 56 9 92 20 36 11 67 20 70 20 11 0 85 -104 85 -119 0 -9 -3 -29
-8 -46 -4 -16 -11 -59 -14 -95 -3 -36 -16 -87 -29 -114 -29 -59 -30 -92 -7
-143 19 -40 116 -177 133 -188 5 -3 31 -34 57 -67 70 -92 138 -296 127 -381
-5 -33 -1 -53 15 -86 12 -23 24 -63 27 -89 5 -43 0 -55 -55 -151 -38 -66 -64
-125 -71 -160 -6 -31 -18 -78 -27 -105 -21 -65 -7 -172 33 -246 13 -25 40 -85
60 -135 19 -49 50 -118 67 -153 23 -47 31 -79 32 -125 3 -75 11 -139 32 -232
8 -38 17 -81 19 -94 7 -35 33 -81 69 -123 17 -21 58 -94 89 -164 57 -123 58
-128 46 -165 -11 -32 -11 -46 0 -78 7 -21 10 -43 7 -48 -14 -22 23 -71 72 -96
62 -33 86 -34 131 -4 57 37 117 50 256 53 l132 3 95 53 c121 66 208 136 272
218 28 35 82 99 121 141 77 83 106 145 120 257 5 43 12 57 33 69 71 44 163
109 178 126 14 15 18 39 18 115 1 53 -3 106 -9 117 -5 11 -11 33 -13 49 -2 16
-8 35 -14 42 -7 8 -7 19 -1 31 11 19 88 94 133 128 110 85 175 131 212 150 32
17 53 40 87 96 41 68 44 78 41 134 -3 64 -3 99 0 235 1 53 -3 95 -10 109 -7
13 -26 62 -43 109 -25 73 -28 94 -23 146 6 54 4 63 -14 80 -12 11 -21 27 -21
37 0 25 35 111 63 156 13 21 31 63 40 93 12 40 26 62 51 83 19 15 50 49 68 75
18 26 44 59 58 73 14 14 40 43 59 63 19 21 68 62 110 93 152 111 255 237 370
456 29 54 59 117 67 140 19 52 64 276 64 314 0 63 -40 77 -108 37 -28 -17 -65
-28 -101 -31 -31 -3 -74 -12 -96 -20 -22 -8 -82 -23 -134 -34 -52 -11 -98 -22
-101 -24 -16 -10 -54 33 -81 89 -16 33 -29 66 -29 73 0 22 -80 112 -152 169
-119 96 -152 135 -173 204 -18 59 -29 75 -128 185 -27 29 -46 104 -38 150 10
60 -7 102 -65 158 -35 34 -54 61 -59 84 -6 34 -56 127 -125 234 -22 34 -40 66
-40 71 0 4 8 16 18 26 10 10 24 43 31 75 7 31 17 59 22 62 25 16 -4 115 -54
189 -19 27 -22 28 -76 22 -43 -5 -71 -2 -120 15 -85 27 -139 27 -190 -3 l-40
-23 -68 19 c-37 10 -93 23 -123 28 -30 5 -70 14 -89 20 -18 5 -47 12 -65 15
-30 5 -38 8 -106 47 -52 29 -154 27 -214 -4 -65 -34 -84 -67 -69 -120 10 -39
9 -42 -12 -52 -18 -8 -32 -4 -76 20 -30 17 -74 36 -99 42 -25 6 -52 13 -61 16
-9 3 -22 18 -29 33 -22 53 -49 67 -179 95 -138 30 -144 32 -185 75 -24 25 -27
33 -16 46 7 8 18 32 25 52 11 32 11 42 -1 66 -12 23 -13 34 -3 61 14 39 7 66
-18 66 -10 1 -36 9 -58 20 -50 24 -74 25 -105 3z m86 -48 c10 -8 27 -15 37
-15 20 0 21 -4 6 -31 -8 -15 -7 -30 4 -57 16 -40 14 -54 -14 -94 -26 -36 -24
-74 4 -89 12 -6 31 -22 42 -36 18 -22 86 -45 198 -67 15 -4 39 -9 55 -12 35
-7 72 -31 79 -52 12 -35 38 -53 107 -73 39 -11 90 -32 113 -45 52 -30 113 -32
138 -4 14 16 16 29 11 74 -7 53 -6 54 26 77 47 34 159 34 204 1 32 -24 147
-58 224 -67 25 -3 73 -14 107 -25 92 -30 147 -33 175 -10 32 25 90 35 118 20
54 -29 142 -41 200 -28 9 2 27 -21 46 -57 31 -57 32 -61 18 -94 -8 -19 -17
-47 -20 -64 -8 -47 -23 -67 -49 -67 -33 0 -31 -22 3 -77 95 -148 162 -271 162
-295 0 -21 13 -41 47 -73 74 -71 82 -89 76 -159 -7 -78 22 -145 101 -234 31
-35 56 -67 56 -72 0 -5 9 -33 20 -62 22 -57 62 -106 125 -152 22 -17 70 -59
107 -94 55 -53 72 -77 98 -142 33 -81 76 -136 117 -146 13 -4 52 1 88 10 35 9
77 16 92 16 15 0 48 10 73 21 24 11 72 22 105 25 35 3 79 14 107 28 25 14 48
22 51 20 5 -5 -4 -56 -33 -194 -15 -73 -36 -132 -67 -195 -131 -261 -206 -357
-388 -494 -89 -67 -186 -167 -238 -246 -15 -22 -43 -51 -62 -65 -26 -19 -39
-39 -51 -80 -9 -29 -31 -81 -49 -115 -67 -122 -75 -186 -31 -231 12 -11 13
-21 5 -42 -13 -34 -6 -78 26 -171 14 -41 25 -75 25 -76 0 -7 -86 -57 -103 -61
-12 -2 -38 -10 -57 -17 -77 -31 -102 -36 -126 -26 -14 5 -45 9 -69 9 -38 0
-45 -3 -50 -22 -17 -75 -3 -210 26 -241 10 -12 19 -34 19 -51 0 -35 -29 -116
-41 -116 -9 0 -22 75 -23 138 -1 43 -1 43 -56 62 -70 24 -77 24 -153 -1 -129
-42 -159 -70 -149 -139 4 -26 11 -32 52 -44 59 -18 102 -40 121 -62 18 -22 20
-94 3 -157 -8 -29 -14 -70 -14 -92 0 -33 -10 -53 -55 -115 -57 -76 -72 -110
-60 -131 17 -27 41 -146 34 -164 -10 -26 0 -176 13 -192 6 -7 16 -13 23 -13
45 0 0 -118 -76 -197 -30 -32 -79 -89 -109 -128 -30 -38 -67 -83 -84 -98 -48
-43 -152 -116 -193 -135 -21 -10 -49 -24 -63 -32 -17 -10 -64 -15 -149 -17
-130 -2 -210 -19 -268 -55 -39 -23 -79 -18 -116 16 -27 25 -44 117 -28 158 11
31 6 56 -25 131 -46 109 -101 212 -137 254 -46 56 -82 204 -93 382 -4 77 -11
99 -70 235 -36 83 -77 174 -91 201 -15 28 -31 77 -37 110 -10 54 -9 71 17 175
23 94 39 133 84 209 50 85 56 101 56 150 0 40 -7 72 -25 109 -21 44 -24 60
-17 86 7 24 4 53 -11 111 -11 43 -24 83 -29 89 -4 6 -14 35 -21 65 -12 52 -63
131 -134 206 -40 43 -115 150 -130 187 -12 27 -12 38 0 72 8 21 19 45 25 52 5
7 12 41 15 76 3 35 9 79 15 98 5 19 9 52 9 74 0 38 -6 47 -91 143 -20 22 -42
23 -94 3 -14 -5 -25 -8 -25 -5 0 2 -18 -2 -41 -10 -39 -14 -41 -14 -66 13 -14
15 -36 48 -48 73 -13 25 -36 54 -51 64 -70 46 -287 7 -429 -78 -59 -36 -136
-38 -229 -7 -55 19 -115 11 -208 -26 -105 -43 -125 -44 -168 -14 -18 13 -54
35 -80 49 -26 14 -63 46 -81 70 -19 24 -54 55 -79 68 -67 37 -89 62 -106 118
-17 59 -66 143 -89 152 -9 3 -24 22 -35 43 -20 39 -67 84 -97 95 -33 11 -66
78 -68 141 -1 33 -10 75 -20 95 l-18 37 32 62 c17 35 31 73 31 85 0 12 8 37
18 56 14 28 17 56 15 153 -2 114 -4 122 -33 169 -16 26 -30 52 -30 56 0 3 16
31 35 61 19 30 35 67 35 82 0 20 14 42 52 79 43 43 52 59 59 102 7 40 17 60
52 96 24 25 50 59 57 75 19 38 46 54 117 73 46 11 69 25 111 66 79 77 85 92
68 179 -5 28 -2 44 14 70 11 18 20 43 20 55 0 28 38 66 122 122 51 35 74 58
99 102 18 32 39 61 46 63 8 3 31 -1 51 -10 34 -15 113 -26 189 -26 20 -1 43 9
63 26 20 16 44 26 64 26 19 0 63 16 100 36 59 31 78 36 154 39 152 8 233 15
244 21 5 3 49 6 96 5 54 0 98 5 117 14 40 18 57 18 81 0z m2419 -4175 c7 -30
-3 -187 -12 -202 -2 -4 -9 -3 -16 3 -49 42 -167 116 -173 108 -7 -13 -9 -11
83 -77 40 -29 82 -52 93 -52 11 0 20 -3 21 -7 0 -5 2 -27 6 -51 10 -82 -46
-173 -139 -225 -66 -37 -224 -160 -270 -211 l-27 -29 -43 17 c-71 30 -82 33
-106 31 -17 -1 -21 2 -16 14 9 21 14 144 7 171 -5 20 -80 79 -106 84 -68 13
-77 18 -77 44 0 44 10 51 127 91 61 22 64 22 118 5 l55 -18 -2 -40 c-3 -64 18
-156 39 -169 5 -3 14 -2 21 1 16 11 62 118 62 147 0 14 2 25 5 25 2 0 52 -31
111 -70 58 -38 110 -70 115 -70 15 0 10 16 -8 32 -36 30 -188 118 -205 118
-10 0 -18 5 -18 11 0 6 -10 24 -21 41 -18 24 -22 45 -23 121 l-1 92 28 3 c16
2 38 -3 51 -11 19 -13 27 -13 55 -1 18 8 41 14 50 14 9 0 28 6 43 14 15 8 40
17 56 21 16 3 44 17 63 31 42 31 46 30 54 -6z m-523 -733 l76 -22 -19 -24
c-19 -24 -18 -61 4 -89 5 -7 7 -15 4 -18 -3 -3 -1 -18 5 -33 15 -36 18 -193 4
-210 -13 -17 -152 -111 -164 -111 -22 0 -46 -44 -51 -92 -1 -5 -7 -8 -15 -8
-9 0 -14 12 -14 34 0 19 -3 48 -7 65 -8 38 0 54 23 41 35 -18 82 -29 87 -19 6
9 -30 26 -78 36 -18 4 -27 11 -26 22 3 24 -12 111 -27 153 -13 36 -12 39 26
90 21 29 48 65 59 80 15 19 21 41 21 77 0 28 4 51 8 51 4 0 42 -10 84 -23z"/>
<path d="M4815 5391 c-28 -12 -50 -40 -63 -79 -11 -32 -9 -237 3 -312 7 -44
13 -84 21 -135 13 -88 58 -143 123 -152 88 -12 124 47 123 202 -1 301 -21 412
-82 457 -29 21 -96 31 -125 19z m94 -75 c28 -22 40 -76 47 -212 12 -264 8
-318 -26 -329 -60 -19 -89 30 -106 175 -3 30 -9 76 -13 102 -4 25 -7 92 -7
148 1 95 3 103 25 121 24 20 52 18 80 -5z"/>
<path d="M5167 5393 c-56 -9 -59 -30 -42 -283 1 -25 3 -113 4 -196 1 -159 9
-192 44 -178 14 5 18 16 17 43 -1 20 -2 84 -1 144 1 100 2 107 21 107 23 0 32
-12 119 -172 49 -91 72 -124 88 -126 45 -7 36 31 -42 168 -41 73 -74 134 -73
135 2 1 18 10 35 19 51 26 77 86 77 177 0 80 -20 125 -64 149 -22 12 -142 20
-183 13z m167 -82 c23 -23 29 -91 13 -145 -15 -51 -56 -77 -116 -74 -42 3 -45
5 -47 33 -12 183 -13 204 -1 209 26 12 132 -4 151 -23z"/>
<path d="M5585 5370 c-3 -6 -8 -44 -10 -85 -2 -41 -6 -96 -9 -123 -9 -77 -15
-143 -21 -222 -16 -197 -20 -186 72 -200 144 -23 151 -23 162 -2 15 28 -5 41
-73 48 -31 3 -64 7 -74 9 -9 2 -21 4 -26 4 -7 1 -1 164 9 246 16 125 22 305
11 323 -9 15 -33 16 -41 2z"/>
<path d="M5982 5331 c-8 -5 -26 -72 -43 -157 -16 -82 -40 -205 -54 -274 -14
-69 -28 -134 -30 -145 -7 -32 10 -49 47 -48 115 3 206 75 240 187 40 135 49
260 24 319 -17 43 -70 95 -113 113 -37 16 -53 17 -71 5z m102 -102 c34 -40 40
-67 33 -151 -9 -110 -44 -215 -85 -254 -31 -30 -97 -62 -107 -52 -2 2 11 78
30 168 18 91 36 183 39 205 22 141 21 139 45 126 10 -6 31 -24 45 -42z"/>
<path d="M4570 5301 c0 -17 5 -65 10 -108 11 -82 30 -218 35 -243 1 -8 5 -33
9 -55 l7 -40 -28 30 c-15 17 -42 47 -59 67 -18 20 -43 43 -56 52 -40 26 -55 5
-86 -123 l-28 -115 -38 185 c-60 294 -76 338 -111 309 -8 -7 -13 -21 -10 -30
3 -9 16 -71 30 -136 69 -342 87 -419 102 -442 33 -53 75 21 109 194 9 46 19
84 23 84 7 0 129 -151 156 -192 9 -16 25 -28 35 -28 19 0 37 18 35 35 -4 33
-18 132 -21 150 -2 11 -6 40 -9 64 -3 25 -7 54 -10 65 -2 12 -7 41 -9 66 -27
234 -27 235 -59 238 -24 3 -27 0 -27 -27z"/>
<path d="M6260 4202 c0 -13 23 -32 39 -32 11 0 10 4 -4 20 -19 21 -35 26 -35
12z"/>
<path d="M6220 4173 c0 -9 57 -43 71 -43 18 0 8 16 -20 33 -31 18 -51 22 -51
10z"/>
<path d="M6210 4138 c0 -13 53 -48 71 -48 19 0 8 16 -26 38 -40 25 -45 27 -45
10z"/>
<path d="M6150 4131 c0 -7 78 -59 133 -88 4 -2 7 2 7 9 0 7 -27 30 -60 51 -61
38 -80 44 -80 28z"/>
<path d="M5924 4112 c8 -13 336 -239 360 -248 9 -3 16 -1 16 4 0 13 -334 242
-363 250 -13 3 -18 1 -13 -6z"/>
<path d="M6030 4100 c0 -16 253 -200 275 -200 19 0 -12 28 -129 114 -128 95
-146 105 -146 86z"/>
<path d="M5930 4000 c0 -10 314 -170 332 -170 4 0 8 4 8 10 0 9 -313 170 -331
170 -5 0 -9 -5 -9 -10z"/>
<path d="M5960 3939 c0 -10 257 -139 279 -139 32 0 -2 22 -126 83 -145 70
-153 73 -153 56z"/>
<path d="M5750 3900 c0 -15 55 -61 59 -49 2 6 -7 21 -20 35 -23 25 -39 31 -39
14z"/>
<path d="M5735 3845 c61 -56 79 -66 73 -41 -5 20 -97 96 -116 96 -11 -1 5 -20
43 -55z"/>
<path d="M5610 3872 c0 -6 36 -36 80 -67 44 -31 82 -60 85 -65 7 -12 45 -13
45 -2 0 8 -171 129 -195 138 -8 4 -15 1 -15 -4z"/>
<path d="M5565 3860 c-7 -12 156 -133 311 -229 88 -55 94 -57 94 -38 0 6 -21
23 -47 37 -25 13 -94 59 -152 100 -174 125 -199 141 -206 130z"/>
<path d="M5980 3821 c0 -15 161 -114 171 -104 5 5 -26 31 -71 61 -79 52 -100
60 -100 43z"/>
<path d="M5970 3786 c0 -16 98 -96 118 -96 26 0 12 15 -80 83 -29 22 -38 25
-38 13z"/>
<path d="M5946 3751 c-6 -8 33 -38 112 -85 6 -4 17 -4 23 -1 6 4 -3 16 -23 29
-77 51 -107 66 -112 57z"/>
<path d="M5940 3704 c0 -11 13 -32 28 -47 52 -50 50 -25 -2 38 -23 27 -25 28
-26 9z"/>
<path d="M5907 3674 c-7 -7 46 -54 62 -54 19 0 12 16 -19 38 -32 24 -34 25
-43 16z"/>
<path d="M5760 3636 c0 -7 42 -29 93 -49 99 -40 107 -42 107 -28 0 8 -88 50
-162 77 -31 11 -38 11 -38 0z"/>
<path d="M5775 3590 c4 -6 28 -21 54 -34 72 -34 81 -37 81 -22 0 7 -26 25 -59
40 -62 28 -86 33 -76 16z"/>
<path d="M5740 3567 c0 -12 118 -77 140 -77 26 0 5 20 -47 45 -32 16 -66 32
-75 37 -13 6 -18 5 -18 -5z"/>
<path d="M5718 3467 c7 -8 25 -17 40 -21 15 -3 37 -8 50 -12 13 -4 22 -2 22 5
0 13 -28 25 -84 35 -34 7 -38 6 -28 -7z"/>
<path d="M5716 3421 c-6 -10 9 -17 56 -25 26 -4 47 7 31 17 -19 11 -82 17 -87
8z"/>
<path d="M5705 3369 c-4 -5 20 -21 52 -35 32 -14 61 -28 65 -30 4 -2 9 0 13 5
3 6 -13 20 -35 31 -65 33 -89 40 -95 29z"/>
<path d="M5670 3331 c0 -5 28 -21 63 -35 l62 -26 -55 6 c-30 3 -67 7 -82 10
-33 5 -38 -14 -5 -20 131 -28 191 -36 199 -28 7 7 -2 13 -22 17 -24 5 -29 10
-19 16 19 12 5 22 -67 47 -69 25 -74 26 -74 13z"/>
<path d="M5645 3239 c-9 -13 -15 -9 92 -63 93 -46 151 -62 108 -30 -46 34
-194 104 -200 93z"/>
<path d="M5610 3210 c0 -9 72 -60 85 -60 3 0 17 -8 32 -17 47 -31 122 -62 128
-53 3 5 -18 21 -47 36 -29 15 -82 44 -117 65 -65 40 -81 46 -81 29z"/>
<path d="M5630 3147 c0 -12 87 -66 153 -95 58 -26 22 11 -59 60 -85 51 -94 55
-94 35z"/>
<path d="M5646 3081 c-3 -5 21 -23 53 -40 34 -18 62 -27 66 -22 3 6 -5 15 -17
22 -13 7 -38 21 -56 31 -37 21 -39 21 -46 9z"/>
<path d="M5625 2980 c-4 -6 -4 -10 -1 -10 2 0 11 -3 20 -6 9 -3 16 -2 16 4 0
14 -28 23 -35 12z"/>
<path d="M7545 8011 c-11 -9 -45 -45 -75 -81 -30 -36 -57 -67 -61 -70 -3 -3
-48 -52 -100 -110 -125 -140 -162 -181 -174 -194 -6 -6 -62 -72 -125 -146 -63
-74 -125 -146 -137 -160 -143 -166 -183 -224 -166 -241 8 -8 32 17 85 83 41
51 81 100 89 108 8 8 36 42 64 75 27 33 62 74 76 90 15 17 60 68 100 115 41
47 78 90 84 96 5 6 41 45 79 87 38 43 78 88 90 100 129 141 216 243 216 253 0
11 -30 8 -45 -5z"/>
<path d="M7715 7339 c-33 -22 -158 -104 -279 -182 -120 -78 -233 -154 -250
-169 -27 -23 -29 -27 -14 -33 13 -5 69 26 190 105 95 62 235 153 311 203 127
82 163 118 120 116 -10 0 -45 -18 -78 -40z"/>
<path d="M8270 6844 c-25 -8 -319 -82 -655 -165 -335 -83 -614 -155 -620 -160
-39 -38 45 -21 666 131 360 89 665 166 678 173 58 29 5 45 -69 21z"/>
<path d="M6707 5203 c-21 -37 -179 -602 -173 -618 6 -18 42 -33 105 -45 165
-31 249 158 136 307 l-25 32 38 11 c22 5 57 23 80 40 92 66 95 158 7 225 -49
38 -156 68 -168 48z m103 -79 c44 -24 70 -56 70 -88 0 -15 -45 -59 -78 -75
-13 -7 -43 -15 -67 -18 l-43 -5 25 98 c25 100 30 114 40 114 3 0 27 -12 53
-26z m-102 -292 c65 -66 77 -152 29 -207 -23 -27 -70 -35 -115 -21 -22 7 -25
25 -10 66 4 8 14 44 23 80 21 77 33 110 40 110 3 0 18 -13 33 -28z"/>
<path d="M3631 5110 c-46 -16 -95 -37 -108 -45 -29 -19 -27 -28 38 -185 26
-63 72 -176 103 -250 31 -74 56 -140 56 -147 0 -6 9 -18 20 -26 18 -13 31 -10
119 25 102 41 121 57 96 82 -13 13 -23 11 -82 -11 -38 -14 -74 -30 -80 -36 -9
-6 -15 -2 -22 14 -61 145 -93 226 -94 237 -1 7 30 27 72 45 80 35 107 61 81
77 -19 13 -44 7 -122 -29 l-62 -29 -38 86 c-20 48 -37 92 -38 99 0 6 39 24 88
39 93 29 120 48 101 71 -16 19 -33 16 -128 -17z"/>
<path d="M7064 5102 c-5 -4 -43 -101 -83 -217 -40 -115 -84 -242 -98 -282 -36
-103 -32 -111 76 -151 92 -34 124 -34 119 0 -2 15 -19 26 -58 40 -30 10 -65
23 -77 28 l-22 9 45 128 c24 70 46 133 49 140 3 9 31 3 99 -22 98 -35 126 -36
126 -5 0 25 -13 32 -112 63 l-87 28 15 47 c8 26 19 66 26 90 10 40 13 43 37
37 14 -4 57 -21 96 -39 75 -34 105 -36 105 -5 0 24 -26 40 -120 77 -90 36
-122 43 -136 34z"/>
<path d="M3249 4948 c-133 -64 -159 -81 -159 -110 0 -25 21 -23 80 7 27 14 54
25 59 25 14 0 39 -50 152 -305 51 -115 98 -213 103 -217 6 -4 19 -8 29 -8 24
0 22 29 -7 92 -13 29 -50 112 -81 183 -32 72 -75 165 -97 208 l-39 78 65 29
c53 24 63 33 59 49 -9 35 -39 29 -164 -31z"/>
<path d="M7383 4964 c-7 -20 1 -26 70 -54 31 -12 57 -24 57 -25 0 -11 -110
-243 -170 -360 -83 -161 -95 -191 -74 -199 23 -9 40 3 64 47 48 89 178 355
205 420 15 37 31 67 34 67 3 0 31 -9 61 -21 52 -19 55 -20 67 -3 7 10 13 21
13 25 0 6 -83 49 -95 49 -3 0 -24 9 -48 19 -57 27 -133 51 -158 51 -11 0 -22
-7 -26 -16z"/>
<path d="M7770 4796 c-16 -20 -3 -41 33 -54 77 -28 80 -17 -59 -242 -184 -297
-179 -289 -162 -306 30 -30 32 -26 244 325 51 84 95 155 97 158 3 2 28 -7 56
-22 41 -20 56 -23 71 -15 40 21 22 40 -87 92 -152 71 -179 80 -193 64z"/>
<path d="M2893 4775 l-21 -15 20 -72 c12 -40 44 -149 73 -243 30 -93 56 -179
59 -190 30 -116 38 -135 57 -135 11 0 23 8 26 17 5 14 -25 145 -53 234 -4 11
10 26 45 48 l51 33 95 -100 c60 -63 102 -99 113 -98 30 5 19 42 -28 93 -25 26
-79 86 -119 133 -159 184 -188 215 -232 262 -51 53 -55 55 -86 33z m171 -219
c53 -62 53 -59 -6 -91 -31 -17 -30 -18 -52 55 -9 30 -22 78 -31 105 l-14 50
27 -31 c15 -17 49 -57 76 -88z"/>
<path d="M2686 4641 c-4 -5 -9 -76 -12 -158 -3 -81 -7 -174 -8 -205 -1 -32 -5
-60 -8 -63 -3 -3 -34 40 -69 97 -99 163 -122 186 -148 154 -9 -11 20 -63 135
-247 80 -129 157 -256 170 -282 20 -38 29 -48 47 -45 36 5 30 38 -22 126 -27
45 -45 82 -39 82 5 0 60 -16 121 -35 146 -45 176 -50 184 -29 10 26 -15 39
-170 89 l-147 47 5 91 c4 79 8 315 6 370 -1 18 -35 24 -45 8z"/>
<path d="M8128 4561 c-18 -27 -97 -145 -175 -262 -79 -117 -143 -220 -143
-228 0 -9 40 -40 92 -71 110 -66 105 -65 123 -50 22 18 8 35 -69 86 l-73 48
65 100 c97 150 80 141 170 90 87 -50 112 -55 112 -21 -1 17 -18 33 -75 67 -41
25 -75 48 -75 53 0 4 24 43 53 87 l54 80 83 -60 c46 -33 86 -60 90 -60 15 0
30 28 24 43 -8 23 -193 147 -218 147 -3 0 -20 -22 -38 -49z"/>
<path d="M8434 4352 c-259 -317 -350 -442 -340 -468 14 -35 45 -10 126 101 47
63 88 115 92 115 4 0 6 -98 5 -217 l-2 -218 22 -3 c31 -5 35 17 36 223 l2 176
25 -8 c14 -4 53 -8 87 -8 57 0 65 3 97 34 90 87 86 158 -16 261 -62 63 -90 66
-134 12z m116 -83 c22 -28 40 -59 40 -70 0 -10 -16 -37 -36 -59 -29 -32 -43
-40 -71 -40 -38 0 -67 12 -100 43 -22 20 -22 20 -3 46 10 14 37 46 59 71 22
25 41 48 41 53 1 22 34 1 70 -44z"/>
<path d="M2140 4271 c-37 -37 -45 -70 -27 -113 18 -43 58 -75 157 -123 152
-76 268 -154 291 -197 17 -31 -15 -54 -68 -49 -6 0 -34 19 -63 42 -52 41 -82
47 -88 17 -6 -30 99 -113 154 -121 38 -6 108 23 123 51 43 81 -47 171 -296
296 -116 59 -165 101 -156 135 8 32 33 33 89 5 73 -37 111 -20 62 26 -32 30
-73 50 -114 56 -29 3 -41 -1 -64 -25z"/>
<path d="M6988 4103 c-9 -10 -19 -32 -22 -49 -4 -18 -18 -37 -35 -47 -16 -9
-34 -31 -42 -49 -7 -18 -31 -54 -52 -80 -31 -38 -52 -51 -101 -68 -33 -11 -75
-29 -93 -40 -65 -39 -99 -156 -69 -240 15 -43 14 -48 -9 -113 -14 -37 -35 -81
-47 -98 -24 -32 -26 -59 -16 -243 4 -91 16 -106 100 -131 46 -13 53 -13 101 6
29 11 58 26 65 32 22 18 57 94 107 232 25 72 66 177 90 235 24 58 49 123 55
145 7 22 22 58 33 79 10 22 21 54 24 70 3 17 13 39 24 49 22 20 22 25 9 98 -5
30 -12 79 -16 109 -8 68 -17 86 -54 105 -36 19 -34 19 -52 -2z m78 -114 c2
-29 9 -79 15 -109 11 -51 10 -55 -10 -68 -14 -10 -21 -25 -21 -46 0 -17 -9
-45 -19 -63 -11 -17 -29 -60 -39 -95 -11 -34 -37 -101 -57 -148 -20 -47 -53
-130 -72 -185 -19 -55 -51 -137 -71 -182 -31 -74 -40 -85 -77 -103 -23 -11
-53 -20 -68 -20 -35 0 -107 29 -108 44 -1 6 -3 40 -4 76 -2 36 -6 80 -10 97
-10 45 2 97 29 130 12 15 33 60 45 99 22 71 22 73 5 128 -17 53 -17 59 -1 109
22 68 51 95 134 123 75 25 140 80 169 144 9 19 32 49 50 65 20 17 37 43 40 59
8 46 15 50 41 24 17 -18 25 -39 29 -79z"/>
<path d="M3515 3784 c-589 -221 -1064 -415 -1055 -430 11 -19 63 -3 275 84
121 50 288 116 370 147 83 31 167 63 188 72 20 9 110 44 200 77 116 44 163 66
165 79 5 24 -8 22 -143 -29z"/>
<path d="M3558 3426 c-13 -7 -56 -30 -94 -51 -38 -21 -98 -53 -134 -73 -36
-19 -103 -56 -150 -82 -47 -26 -130 -71 -185 -100 -220 -116 -475 -266 -475
-280 0 -26 38 -10 237 103 120 68 292 163 383 212 91 48 185 100 210 113 90
51 186 103 218 119 31 16 41 36 24 47 -5 3 -20 -1 -34 -8z"/>
<path d="M3752 3103 c-37 -76 -98 -194 -134 -263 -193 -367 -208 -400 -178
-400 15 0 7 -16 301 556 60 116 109 218 109 227 0 10 -7 17 -15 17 -8 0 -42
-55 -83 -137z"/>
</g>
</svg>
